<?xml version="1.0" encoding="UTF-8"?>
<svg xmlns="http://www.w3.org/2000/svg" width="64" height="64" viewBox="0 0 64 64">
  <!-- Background -->
  <rect width="64" height="64" fill="none"/>
  
  <!-- Grid/Target circles -->
  <circle cx="32" cy="32" r="28" fill="none" stroke="#606060" stroke-width="1.5" opacity="0.3"/>
  <circle cx="32" cy="32" r="20" fill="none" stroke="#606060" stroke-width="1.5" opacity="0.3"/>
  <circle cx="32" cy="32" r="12" fill="none" stroke="#606060" stroke-width="1.5" opacity="0.3"/>
  
  <!-- Cross hair -->
  <line x1="32" y1="8" x2="32" y2="56" stroke="#606060" stroke-width="1.5" opacity="0.3"/>
  <line x1="8" y1="32" x2="56" y2="32" stroke="#606060" stroke-width="1.5" opacity="0.3"/>
  
  <!-- Spot points (simulating ray hits) -->
  <!-- Center cluster -->
  <circle cx="32" cy="32" r="2" fill="#3498db"/>
  <circle cx="30" cy="30" r="2" fill="#3498db"/>
  <circle cx="34" cy="31" r="2" fill="#3498db"/>
  <circle cx="31" cy="34" r="2" fill="#3498db"/>
  <circle cx="33" cy="33" r="2" fill="#3498db"/>
  
  <!-- Slightly off-center -->
  <circle cx="28" cy="32" r="2" fill="#2980b9"/>
  <circle cx="36" cy="32" r="2" fill="#2980b9"/>
  <circle cx="32" cy="28" r="2" fill="#2980b9"/>
  <circle cx="32" cy="36" r="2" fill="#2980b9"/>
  
  <!-- Outer points -->
  <circle cx="26" cy="28" r="2" fill="#2471a3"/>
  <circle cx="38" cy="28" r="2" fill="#2471a3"/>
  <circle cx="26" cy="36" r="2" fill="#2471a3"/>
  <circle cx="38" cy="36" r="2" fill="#2471a3"/>
  <circle cx="30" cy="26" r="2" fill="#2471a3"/>
  <circle cx="34" cy="38" r="2" fill="#2471a3"/>
  
  <!-- Chart/graph indicator (bottom right corner) -->
  <rect x="46" y="46" width="14" height="14" rx="2" fill="#ffffff" stroke="#606060" stroke-width="1"/>
  <line x1="48" y1="58" x2="58" y2="58" stroke="#606060" stroke-width="1"/>
  <line x1="48" y1="58" x2="48" y2="48" stroke="#606060" stroke-width="1"/>
  <circle cx="52" cy="54" r="1.5" fill="#e74c3c"/>
  <circle cx="54" cy="52" r="1.5" fill="#e74c3c"/>
  <circle cx="56" cy="55" r="1.5" fill="#e74c3c"/>
</svg>
